<?xml version="1.0" encoding="UTF-8" standalone="no"?>
<!DOCTYPE svg PUBLIC "-//W3C//DTD SVG 1.1//EN"
 "http://www.w3.org/Graphics/SVG/1.1/DTD/svg11.dtd">
<!-- Generated by graphviz version 12.0.0 (20240704.0754)
 -->
<!-- Title: trie_tree Pages: 1 -->
<svg width="610pt" height="281pt"
 viewBox="0.00 0.00 610.00 281.01" xmlns="http://www.w3.org/2000/svg" xmlns:xlink="http://www.w3.org/1999/xlink">
<g id="graph0" class="graph" transform="scale(1 1) rotate(0) translate(4 277.01)">
<title>trie_tree</title>
<polygon fill="white" stroke="none" points="-4,4 -4,-277.01 606,-277.01 606,4 -4,4"/>
<!-- a -->
<g id="node1" class="node">
<title>a</title>
<ellipse fill="none" stroke="black" cx="300" cy="-255.01" rx="18" ry="18"/>
<text text-anchor="middle" x="300" y="-250.33" font-family="Times,serif" font-size="14.00">_</text>
</g>
<!-- ae -->
<g id="node2" class="node">
<title>ae</title>
<ellipse fill="none" stroke="black" cx="35" cy="-179.79" rx="18" ry="18"/>
<text text-anchor="middle" x="35" y="-175.11" font-family="Times,serif" font-size="14.00">e</text>
</g>
<!-- a&#45;&gt;ae -->
<g id="edge1" class="edge">
<title>a&#45;&gt;ae</title>
<path fill="none" stroke="black" d="M281.98,-252.47C241.3,-248.49 139.9,-235.6 63,-201.01 61.27,-200.23 59.54,-199.33 57.84,-198.36"/>
<polygon fill="black" stroke="black" points="60.1,-195.66 49.82,-193.09 56.26,-201.51 60.1,-195.66"/>
</g>
<!-- ah -->
<g id="node5" class="node">
<title>ah</title>
<ellipse fill="none" stroke="black" cx="90" cy="-179.79" rx="18" ry="18"/>
<text text-anchor="middle" x="90" y="-175.11" font-family="Times,serif" font-size="14.00">h</text>
</g>
<!-- a&#45;&gt;ah -->
<g id="edge4" class="edge">
<title>a&#45;&gt;ah</title>
<path fill="none" stroke="black" d="M282.27,-249.95C250.3,-242.35 181.18,-224.58 126,-201.01 122.33,-199.44 118.55,-197.59 114.89,-195.67"/>
<polygon fill="black" stroke="black" points="116.81,-192.73 106.37,-190.93 113.41,-198.85 116.81,-192.73"/>
</g>
<!-- at -->
<g id="node8" class="node">
<title>at</title>
<ellipse fill="none" stroke="black" cx="153" cy="-179.79" rx="18" ry="18"/>
<text text-anchor="middle" x="153" y="-175.11" font-family="Times,serif" font-size="14.00">t</text>
</g>
<!-- a&#45;&gt;at -->
<g id="edge7" class="edge">
<title>a&#45;&gt;at</title>
<path fill="none" stroke="black" d="M283.49,-247.38C260.64,-238.01 218.33,-219.91 184,-201.01 181.76,-199.77 179.47,-198.43 177.19,-197.05"/>
<polygon fill="black" stroke="black" points="179.14,-194.14 168.82,-191.73 175.38,-200.05 179.14,-194.14"/>
</g>
<!-- aC -->
<g id="node11" class="node">
<title>aC</title>
<ellipse fill="none" stroke="black" cx="212" cy="-179.79" rx="18.59" ry="18.59"/>
<text text-anchor="middle" x="212" y="-175.11" font-family="Times,serif" font-size="14.00">C</text>
</g>
<!-- a&#45;&gt;aC -->
<g id="edge10" class="edge">
<title>a&#45;&gt;aC</title>
<path fill="none" stroke="black" d="M286.63,-242.88C272.84,-231.41 251.07,-213.3 234.6,-199.59"/>
<polygon fill="black" stroke="black" points="237.16,-197.17 227.24,-193.46 232.69,-202.55 237.16,-197.17"/>
</g>
<!-- aG -->
<g id="node14" class="node">
<title>aG</title>
<ellipse fill="none" stroke="black" cx="272" cy="-179.79" rx="19.12" ry="19.12"/>
<text text-anchor="middle" x="272" y="-175.11" font-family="Times,serif" font-size="14.00">G</text>
</g>
<!-- a&#45;&gt;aG -->
<g id="edge13" class="edge">
<title>a&#45;&gt;aG</title>
<path fill="none" stroke="black" d="M293.79,-237.76C290.51,-229.18 286.4,-218.43 282.63,-208.58"/>
<polygon fill="black" stroke="black" points="285.97,-207.51 279.13,-199.42 279.43,-210.01 285.97,-207.51"/>
</g>
<!-- aK -->
<g id="node17" class="node">
<title>aK</title>
<ellipse fill="none" stroke="black" cx="331" cy="-179.79" rx="18.59" ry="18.59"/>
<text text-anchor="middle" x="331" y="-175.11" font-family="Times,serif" font-size="14.00">K</text>
</g>
<!-- a&#45;&gt;aK -->
<g id="edge16" class="edge">
<title>a&#45;&gt;aK</title>
<path fill="none" stroke="black" d="M306.73,-238.12C310.47,-229.28 315.22,-218.05 319.53,-207.87"/>
<polygon fill="black" stroke="black" points="322.7,-209.37 323.37,-198.8 316.25,-206.64 322.7,-209.37"/>
</g>
<!-- aM -->
<g id="node20" class="node">
<title>aM</title>
<ellipse fill="none" stroke="black" cx="392" cy="-179.79" rx="21.22" ry="21.22"/>
<text text-anchor="middle" x="392" y="-175.11" font-family="Times,serif" font-size="14.00">M</text>
</g>
<!-- a&#45;&gt;aM -->
<g id="edge19" class="edge">
<title>a&#45;&gt;aM</title>
<path fill="none" stroke="black" d="M313.97,-242.88C327.97,-231.75 349.82,-214.36 366.84,-200.81"/>
<polygon fill="black" stroke="black" points="368.89,-203.65 374.54,-194.69 364.53,-198.17 368.89,-203.65"/>
</g>
<!-- aP -->
<g id="node23" class="node">
<title>aP</title>
<ellipse fill="none" stroke="black" cx="453" cy="-179.79" rx="18.06" ry="18.06"/>
<text text-anchor="middle" x="453" y="-175.11" font-family="Times,serif" font-size="14.00">P</text>
</g>
<!-- a&#45;&gt;aP -->
<g id="edge22" class="edge">
<title>a&#45;&gt;aP</title>
<path fill="none" stroke="black" d="M316.59,-247.82C340.46,-238.71 385.6,-220.6 422,-201.01 424.25,-199.79 426.55,-198.47 428.84,-197.1"/>
<polygon fill="black" stroke="black" points="430.64,-200.1 437.21,-191.78 426.89,-194.19 430.64,-200.1"/>
</g>
<!-- a1 -->
<g id="node26" class="node">
<title>a1</title>
<ellipse fill="none" stroke="black" cx="512" cy="-179.79" rx="18" ry="18"/>
<text text-anchor="middle" x="512" y="-175.11" font-family="Times,serif" font-size="14.00">1</text>
</g>
<!-- a&#45;&gt;a1 -->
<g id="edge25" class="edge">
<title>a&#45;&gt;a1</title>
<path fill="none" stroke="black" d="M317.7,-250.51C350.64,-243.62 423.16,-226.72 480,-201.01 482.62,-199.82 485.28,-198.45 487.89,-196.99"/>
<polygon fill="black" stroke="black" points="489.49,-200.12 496.21,-191.93 485.85,-194.13 489.49,-200.12"/>
</g>
<!-- a2 -->
<g id="node29" class="node">
<title>a2</title>
<ellipse fill="none" stroke="black" cx="566" cy="-179.79" rx="18" ry="18"/>
<text text-anchor="middle" x="566" y="-175.11" font-family="Times,serif" font-size="14.00">2</text>
</g>
<!-- a&#45;&gt;a2 -->
<g id="edge28" class="edge">
<title>a&#45;&gt;a2</title>
<path fill="none" stroke="black" d="M318.22,-252.6C359.33,-248.87 461.75,-236.48 539,-201.01 540.5,-200.32 541.99,-199.54 543.46,-198.69"/>
<polygon fill="black" stroke="black" points="545.1,-201.81 551.45,-193.33 541.2,-196 545.1,-201.81"/>
</g>
<!-- aeM -->
<g id="node3" class="node">
<title>aeM</title>
<ellipse fill="none" stroke="black" cx="27" cy="-101.35" rx="21.22" ry="21.22"/>
<text text-anchor="middle" x="27" y="-96.67" font-family="Times,serif" font-size="14.00">M</text>
</g>
<!-- ae&#45;&gt;aeM -->
<g id="edge2" class="edge">
<title>ae&#45;&gt;aeM</title>
<path fill="none" stroke="black" d="M33.18,-161.44C32.34,-153.39 31.31,-143.55 30.34,-134.23"/>
<polygon fill="black" stroke="black" points="33.83,-133.96 29.31,-124.38 26.87,-134.69 33.83,-133.96"/>
</g>
<!-- aeMl -->
<g id="node4" class="node">
<title>aeMl</title>
<ellipse fill="none" stroke="black" cx="22" cy="-22.06" rx="18" ry="18"/>
<ellipse fill="none" stroke="black" cx="22" cy="-22.06" rx="22" ry="22"/>
<text text-anchor="middle" x="22" y="-17.39" font-family="Times,serif" font-size="14.00">l</text>
</g>
<!-- aeM&#45;&gt;aeMl -->
<g id="edge3" class="edge">
<title>aeM&#45;&gt;aeMl</title>
<path fill="none" stroke="black" d="M25.69,-80.04C25.2,-72.56 24.64,-63.89 24.11,-55.61"/>
<polygon fill="black" stroke="black" points="27.61,-55.58 23.47,-45.82 20.63,-56.03 27.61,-55.58"/>
</g>
<!-- aht -->
<g id="node6" class="node">
<title>aht</title>
<ellipse fill="none" stroke="black" cx="86" cy="-101.35" rx="18" ry="18"/>
<text text-anchor="middle" x="86" y="-96.67" font-family="Times,serif" font-size="14.00">t</text>
</g>
<!-- ah&#45;&gt;aht -->
<g id="edge5" class="edge">
<title>ah&#45;&gt;aht</title>
<path fill="none" stroke="black" d="M89.09,-161.44C88.62,-152.45 88.03,-141.23 87.5,-131"/>
<polygon fill="black" stroke="black" points="91,-130.94 86.98,-121.13 84.01,-131.3 91,-130.94"/>
</g>
<!-- ahtX -->
<g id="node7" class="node">
<title>ahtX</title>
<ellipse fill="none" stroke="black" cx="84" cy="-22.06" rx="18.06" ry="18.06"/>
<ellipse fill="none" stroke="black" cx="84" cy="-22.06" rx="22.06" ry="22.06"/>
<text text-anchor="middle" x="84" y="-17.39" font-family="Times,serif" font-size="14.00">X</text>
</g>
<!-- aht&#45;&gt;ahtX -->
<g id="edge6" class="edge">
<title>aht&#45;&gt;ahtX</title>
<path fill="none" stroke="black" d="M85.56,-83.19C85.35,-75.19 85.1,-65.38 84.85,-56.03"/>
<polygon fill="black" stroke="black" points="88.35,-56.01 84.6,-46.1 81.36,-56.19 88.35,-56.01"/>
</g>
<!-- atT -->
<g id="node9" class="node">
<title>atT</title>
<ellipse fill="none" stroke="black" cx="149" cy="-101.35" rx="18" ry="18"/>
<text text-anchor="middle" x="149" y="-96.67" font-family="Times,serif" font-size="14.00">T</text>
</g>
<!-- at&#45;&gt;atT -->
<g id="edge8" class="edge">
<title>at&#45;&gt;atT</title>
<path fill="none" stroke="black" d="M152.09,-161.44C151.62,-152.45 151.03,-141.23 150.5,-131"/>
<polygon fill="black" stroke="black" points="154,-130.94 149.98,-121.13 147.01,-131.3 154,-130.94"/>
</g>
<!-- atT9 -->
<g id="node10" class="node">
<title>atT9</title>
<ellipse fill="none" stroke="black" cx="146" cy="-22.06" rx="18" ry="18"/>
<ellipse fill="none" stroke="black" cx="146" cy="-22.06" rx="22" ry="22"/>
<text text-anchor="middle" x="146" y="-17.39" font-family="Times,serif" font-size="14.00">9</text>
</g>
<!-- atT&#45;&gt;atT9 -->
<g id="edge9" class="edge">
<title>atT&#45;&gt;atT9</title>
<path fill="none" stroke="black" d="M148.33,-83.19C148.02,-75.13 147.64,-65.23 147.27,-55.81"/>
<polygon fill="black" stroke="black" points="150.77,-55.67 146.88,-45.82 143.77,-55.95 150.77,-55.67"/>
</g>
<!-- aCc -->
<g id="node12" class="node">
<title>aCc</title>
<ellipse fill="none" stroke="black" cx="209" cy="-101.35" rx="18" ry="18"/>
<text text-anchor="middle" x="209" y="-96.67" font-family="Times,serif" font-size="14.00">c</text>
</g>
<!-- aC&#45;&gt;aCc -->
<g id="edge11" class="edge">
<title>aC&#45;&gt;aCc</title>
<path fill="none" stroke="black" d="M211.3,-161.06C210.95,-152.12 210.52,-141.05 210.12,-130.95"/>
<polygon fill="black" stroke="black" points="213.63,-131.08 209.74,-121.23 206.64,-131.36 213.63,-131.08"/>
</g>
<!-- aCcc -->
<g id="node13" class="node">
<title>aCcc</title>
<ellipse fill="none" stroke="black" cx="208" cy="-22.06" rx="18" ry="18"/>
<ellipse fill="none" stroke="black" cx="208" cy="-22.06" rx="22" ry="22"/>
<text text-anchor="middle" x="208" y="-17.39" font-family="Times,serif" font-size="14.00">c</text>
</g>
<!-- aCc&#45;&gt;aCcc -->
<g id="edge12" class="edge">
<title>aCc&#45;&gt;aCcc</title>
<path fill="none" stroke="black" d="M208.78,-83.19C208.67,-75.13 208.55,-65.23 208.42,-55.81"/>
<polygon fill="black" stroke="black" points="211.92,-55.77 208.29,-45.82 204.92,-55.86 211.92,-55.77"/>
</g>
<!-- aGn -->
<g id="node15" class="node">
<title>aGn</title>
<ellipse fill="none" stroke="black" cx="271" cy="-101.35" rx="18" ry="18"/>
<text text-anchor="middle" x="271" y="-96.67" font-family="Times,serif" font-size="14.00">n</text>
</g>
<!-- aG&#45;&gt;aGn -->
<g id="edge14" class="edge">
<title>aG&#45;&gt;aGn</title>
<path fill="none" stroke="black" d="M271.76,-160.28C271.64,-151.49 271.5,-140.77 271.37,-130.96"/>
<polygon fill="black" stroke="black" points="274.88,-131.1 271.25,-121.15 267.88,-131.19 274.88,-131.1"/>
</g>
<!-- aGn7 -->
<g id="node16" class="node">
<title>aGn7</title>
<ellipse fill="none" stroke="black" cx="270" cy="-22.06" rx="18" ry="18"/>
<ellipse fill="none" stroke="black" cx="270" cy="-22.06" rx="22" ry="22"/>
<text text-anchor="middle" x="270" y="-17.39" font-family="Times,serif" font-size="14.00">7</text>
</g>
<!-- aGn&#45;&gt;aGn7 -->
<g id="edge15" class="edge">
<title>aGn&#45;&gt;aGn7</title>
<path fill="none" stroke="black" d="M270.78,-83.19C270.67,-75.13 270.55,-65.23 270.42,-55.81"/>
<polygon fill="black" stroke="black" points="273.92,-55.77 270.29,-45.82 266.92,-55.86 273.92,-55.77"/>
</g>
<!-- aK8 -->
<g id="node18" class="node">
<title>aK8</title>
<ellipse fill="none" stroke="black" cx="331" cy="-101.35" rx="18" ry="18"/>
<text text-anchor="middle" x="331" y="-96.67" font-family="Times,serif" font-size="14.00">8</text>
</g>
<!-- aK&#45;&gt;aK8 -->
<g id="edge17" class="edge">
<title>aK&#45;&gt;aK8</title>
<path fill="none" stroke="black" d="M331,-161.06C331,-152.12 331,-141.05 331,-130.95"/>
<polygon fill="black" stroke="black" points="334.5,-131.23 331,-121.23 327.5,-131.23 334.5,-131.23"/>
</g>
<!-- aK88 -->
<g id="node19" class="node">
<title>aK88</title>
<ellipse fill="none" stroke="black" cx="332" cy="-22.06" rx="18" ry="18"/>
<ellipse fill="none" stroke="black" cx="332" cy="-22.06" rx="22" ry="22"/>
<text text-anchor="middle" x="332" y="-17.39" font-family="Times,serif" font-size="14.00">8</text>
</g>
<!-- aK8&#45;&gt;aK88 -->
<g id="edge18" class="edge">
<title>aK8&#45;&gt;aK88</title>
<path fill="none" stroke="black" d="M331.22,-83.19C331.33,-75.13 331.45,-65.23 331.58,-55.81"/>
<polygon fill="black" stroke="black" points="335.08,-55.86 331.71,-45.82 328.08,-55.77 335.08,-55.86"/>
</g>
<!-- aMm -->
<g id="node21" class="node">
<title>aMm</title>
<ellipse fill="none" stroke="black" cx="393" cy="-101.35" rx="20.69" ry="20.69"/>
<text text-anchor="middle" x="393" y="-96.67" font-family="Times,serif" font-size="14.00">m</text>
</g>
<!-- aM&#45;&gt;aMm -->
<g id="edge20" class="edge">
<title>aM&#45;&gt;aMm</title>
<path fill="none" stroke="black" d="M392.27,-158.3C392.37,-150.73 392.48,-141.96 392.59,-133.64"/>
<polygon fill="black" stroke="black" points="396.09,-133.92 392.72,-123.87 389.09,-133.82 396.09,-133.92"/>
</g>
<!-- aMmr -->
<g id="node22" class="node">
<title>aMmr</title>
<ellipse fill="none" stroke="black" cx="394" cy="-22.06" rx="18" ry="18"/>
<ellipse fill="none" stroke="black" cx="394" cy="-22.06" rx="22" ry="22"/>
<text text-anchor="middle" x="394" y="-17.39" font-family="Times,serif" font-size="14.00">r</text>
</g>
<!-- aMm&#45;&gt;aMmr -->
<g id="edge21" class="edge">
<title>aMm&#45;&gt;aMmr</title>
<path fill="none" stroke="black" d="M393.26,-80.44C393.35,-72.97 393.47,-64.25 393.58,-55.91"/>
<polygon fill="black" stroke="black" points="397.07,-56.08 393.7,-46.04 390.07,-55.99 397.07,-56.08"/>
</g>
<!-- aPK -->
<g id="node24" class="node">
<title>aPK</title>
<ellipse fill="none" stroke="black" cx="454" cy="-101.35" rx="18.59" ry="18.59"/>
<text text-anchor="middle" x="454" y="-96.67" font-family="Times,serif" font-size="14.00">K</text>
</g>
<!-- aP&#45;&gt;aPK -->
<g id="edge23" class="edge">
<title>aP&#45;&gt;aPK</title>
<path fill="none" stroke="black" d="M453.23,-161.44C453.34,-152.64 453.49,-141.71 453.62,-131.65"/>
<polygon fill="black" stroke="black" points="457.11,-131.98 453.74,-121.93 450.11,-131.89 457.11,-131.98"/>
</g>
<!-- aPKd -->
<g id="node25" class="node">
<title>aPKd</title>
<ellipse fill="none" stroke="black" cx="456" cy="-22.06" rx="18" ry="18"/>
<ellipse fill="none" stroke="black" cx="456" cy="-22.06" rx="22" ry="22"/>
<text text-anchor="middle" x="456" y="-17.39" font-family="Times,serif" font-size="14.00">d</text>
</g>
<!-- aPK&#45;&gt;aPKd -->
<g id="edge24" class="edge">
<title>aPK&#45;&gt;aPKd</title>
<path fill="none" stroke="black" d="M454.46,-82.42C454.67,-74.55 454.91,-65.04 455.15,-55.97"/>
<polygon fill="black" stroke="black" points="458.65,-56.06 455.41,-45.98 451.65,-55.88 458.65,-56.06"/>
</g>
<!-- a18 -->
<g id="node27" class="node">
<title>a18</title>
<ellipse fill="none" stroke="black" cx="515" cy="-101.35" rx="18" ry="18"/>
<text text-anchor="middle" x="515" y="-96.67" font-family="Times,serif" font-size="14.00">8</text>
</g>
<!-- a1&#45;&gt;a18 -->
<g id="edge26" class="edge">
<title>a1&#45;&gt;a18</title>
<path fill="none" stroke="black" d="M512.68,-161.44C513.03,-152.45 513.47,-141.23 513.88,-131"/>
<polygon fill="black" stroke="black" points="517.37,-131.26 514.26,-121.14 510.37,-130.99 517.37,-131.26"/>
</g>
<!-- a18n -->
<g id="node28" class="node">
<title>a18n</title>
<ellipse fill="none" stroke="black" cx="518" cy="-22.06" rx="18" ry="18"/>
<ellipse fill="none" stroke="black" cx="518" cy="-22.06" rx="22" ry="22"/>
<text text-anchor="middle" x="518" y="-17.39" font-family="Times,serif" font-size="14.00">n</text>
</g>
<!-- a18&#45;&gt;a18n -->
<g id="edge27" class="edge">
<title>a18&#45;&gt;a18n</title>
<path fill="none" stroke="black" d="M515.67,-83.19C515.98,-75.13 516.36,-65.23 516.73,-55.81"/>
<polygon fill="black" stroke="black" points="520.23,-55.95 517.12,-45.82 513.23,-55.67 520.23,-55.95"/>
</g>
<!-- a2L -->
<g id="node30" class="node">
<title>a2L</title>
<ellipse fill="none" stroke="black" cx="569" cy="-101.35" rx="18" ry="18"/>
<text text-anchor="middle" x="569" y="-96.67" font-family="Times,serif" font-size="14.00">L</text>
</g>
<!-- a2&#45;&gt;a2L -->
<g id="edge29" class="edge">
<title>a2&#45;&gt;a2L</title>
<path fill="none" stroke="black" d="M566.68,-161.44C567.03,-152.45 567.47,-141.23 567.88,-131"/>
<polygon fill="black" stroke="black" points="571.37,-131.26 568.26,-121.14 564.37,-130.99 571.37,-131.26"/>
</g>
<!-- a2L9 -->
<g id="node31" class="node">
<title>a2L9</title>
<ellipse fill="none" stroke="black" cx="580" cy="-22.06" rx="18" ry="18"/>
<ellipse fill="none" stroke="black" cx="580" cy="-22.06" rx="22" ry="22"/>
<text text-anchor="middle" x="580" y="-17.39" font-family="Times,serif" font-size="14.00">9</text>
</g>
<!-- a2L&#45;&gt;a2L9 -->
<g id="edge30" class="edge">
<title>a2L&#45;&gt;a2L9</title>
<path fill="none" stroke="black" d="M571.44,-83.19C572.6,-75.04 574.03,-65.01 575.38,-55.49"/>
<polygon fill="black" stroke="black" points="578.82,-56.2 576.76,-45.8 571.89,-55.21 578.82,-56.2"/>
</g>
</g>
</svg>
